<svg width="24" height="25" viewBox="0 0 24 25" fill="none" xmlns="http://www.w3.org/2000/svg">
<g id="Frame" clip-path="url(#clip0_3680_15956)">
<path id="Vector" d="M9 12.5H15" stroke="#0D101C" stroke-width="1.5" stroke-linecap="round" stroke-linejoin="round"/>
<path id="Vector_2" d="M12 9.5V15.5" stroke="#0D101C" stroke-width="1.5" stroke-linecap="round" stroke-linejoin="round"/>
<path id="Vector_3" d="M6 19.5C5.46957 19.5 4.96086 19.2893 4.58579 18.9142C4.21071 18.5391 4 18.0304 4 17.5V13.5L3 12.5L4 11.5V7.5C4 6.96957 4.21071 6.46086 4.58579 6.08579C4.96086 5.71071 5.46957 5.5 6 5.5" stroke="#0D101C" stroke-width="1.5" stroke-linecap="round" stroke-linejoin="round"/>
<path id="Vector_4" d="M18 19.5C18.5304 19.5 19.0391 19.2893 19.4142 18.9142C19.7893 18.5391 20 18.0304 20 17.5V13.5L21 12.5L20 11.5V7.5C20 6.96957 19.7893 6.46086 19.4142 6.08579C19.0391 5.71071 18.5304 5.5 18 5.5" stroke="#0D101C" stroke-width="1.5" stroke-linecap="round" stroke-linejoin="round"/>
</g>
<defs>
<clipPath id="clip0_3680_15956">
<rect width="24" height="24" fill="white" transform="translate(0 0.5)"/>
</clipPath>
</defs>
</svg>
