<svg width="24" height="25" viewBox="0 0 24 25" fill="none" xmlns="http://www.w3.org/2000/svg">
<g id="Frame" clip-path="url(#clip0_3677_15952)">
<g id="Group 3828">
<path id="Vector" d="M6.55566 5.27778C6.55566 4.80628 6.74297 4.3541 7.07636 4.0207C7.40976 3.6873 7.86195 3.5 8.33344 3.5H17.2223C17.6938 3.5 18.146 3.6873 18.4794 4.0207C18.8128 4.3541 19.0001 4.80628 19.0001 5.27778V14.1667C19.0001 14.6382 18.8128 15.0903 18.4794 15.4237C18.146 15.7571 17.6938 15.9444 17.2223 15.9444H8.33344C7.86195 15.9444 7.40976 15.7571 7.07636 15.4237C6.74297 15.0903 6.55566 14.6382 6.55566 14.1667V5.27778Z" stroke="#0D101C" stroke-width="1.5" stroke-linecap="round" stroke-linejoin="round"/>
<path id="Vector_2" d="M15.4444 15.9446V17.7223C15.4444 18.1938 15.2571 18.646 14.9237 18.9794C14.5903 19.3128 14.1382 19.5001 13.6667 19.5001H4.77778C4.30628 19.5001 3.8541 19.3128 3.5207 18.9794C3.1873 18.646 3 18.1938 3 17.7223V8.83344C3 8.36195 3.1873 7.90976 3.5207 7.57636C3.8541 7.24297 4.30628 7.05566 4.77778 7.05566H6.55556" stroke="#0D101C" stroke-width="1.5" stroke-linecap="round" stroke-linejoin="round"/>
</g>
</g>
<defs>
<clipPath id="clip0_3677_15952">
<rect width="24" height="24" fill="white" transform="translate(0 0.5)"/>
</clipPath>
</defs>
</svg>
