<svg width="24" height="24" viewBox="0 0 24 24" fill="none" xmlns="http://www.w3.org/2000/svg">
<g id="Frame" clip-path="url(#clip0_3810_13256)">
<path id="Vector" d="M4 13C4.325 15.532 5.881 17.781 8 19" stroke="#0D101C" stroke-width="1.5" stroke-linecap="round" stroke-linejoin="round"/>
<path id="Vector_2" d="M20 11C19.7554 9.24017 18.9391 7.60961 17.6766 6.35945C16.4142 5.10928 14.7758 4.30887 13.0137 4.0815C11.2516 3.85414 9.46362 4.21243 7.9252 5.1012C6.38678 5.98996 5.18325 7.35989 4.5 8.99995" stroke="#0D101C" stroke-width="1.5" stroke-linecap="round" stroke-linejoin="round"/>
<path id="Vector_3" d="M4 5V9H8" stroke="#0D101C" stroke-width="1.5" stroke-linecap="round" stroke-linejoin="round"/>
<path id="Vector_4" d="M12 15H14C14.2652 15 14.5196 15.1054 14.7071 15.2929C14.8946 15.4804 15 15.7348 15 16V17C15 17.2652 14.8946 17.5196 14.7071 17.7071C14.5196 17.8946 14.2652 18 14 18H13C12.7348 18 12.4804 18.1054 12.2929 18.2929C12.1054 18.4804 12 18.7348 12 19V20C12 20.2652 12.1054 20.5196 12.2929 20.7071C12.4804 20.8946 12.7348 21 13 21H15" stroke="#0D101C" stroke-width="1.5" stroke-linecap="round" stroke-linejoin="round"/>
<path id="Vector_5" d="M18 15V17C18 17.2652 18.1054 17.5196 18.2929 17.7071C18.4804 17.8946 18.7348 18 19 18H20" stroke="#0D101C" stroke-width="1.5" stroke-linecap="round" stroke-linejoin="round"/>
<path id="Vector_6" d="M21 15V21" stroke="#0D101C" stroke-width="1.5" stroke-linecap="round" stroke-linejoin="round"/>
</g>
<defs>
<clipPath id="clip0_3810_13256">
<rect width="24" height="24" fill="white"/>
</clipPath>
</defs>
</svg>
