<svg width="137" height="36" viewBox="0 0 137 36" fill="none" xmlns="http://www.w3.org/2000/svg">
<g id="Vector">
<path fill-rule="evenodd" clip-rule="evenodd" d="M17.5851 15.6732C17.5905 15.9861 17.5961 16.3144 17.5961 16.6524C17.6444 19.2684 17.6925 22.2365 17.1593 23.6757C16.7482 24.8193 16.096 25.8603 15.247 26.7275C14.3979 27.5948 13.3723 28.2679 12.24 28.7008L12.1403 28.7422C10.985 29.1911 9.75307 29.408 8.51443 29.3808H7.909C4.63406 29.2772 0.100098 27.1374 0.100098 23.3547C0.100098 21.2702 1.13211 17.6463 7.97779 16.8352L8.55573 16.7661C9.76319 16.6281 11.0119 16.4832 12.1988 16.2243C14.0288 15.8206 14.2628 15.0613 14.2628 14.44C14.2961 14.1002 14.2572 13.7572 14.1486 13.4336C14.0401 13.11 13.8644 12.8131 13.6332 12.5625C12.959 11.7238 11.6724 11.3166 9.70128 11.3166C5.98259 11.3166 5.11226 13.0112 4.72007 14.8404C4.65441 15.269 4.42713 15.6558 4.08528 15.9211C3.74341 16.1863 3.31304 16.3097 2.8831 16.2657C2.42807 16.272 1.98736 16.1062 1.64883 15.801C1.3103 15.4959 1.09878 15.0741 1.05643 14.6195C1.05299 14.5827 1.05299 14.5458 1.05643 14.509C1.17233 13.0864 1.70896 11.7308 2.59757 10.616C4.13871 8.73502 6.63275 7.77903 10.0177 7.77903C11.6134 7.75512 13.1874 8.15138 14.5827 8.92828C15.9483 9.75663 17.5755 11.4581 17.5755 14.8611C17.5755 15.116 17.5802 15.3882 17.5851 15.6732ZM8.36654 25.7844C9.96614 25.7844 14.1149 24.8354 14.1149 20.5005V18.5332C13.8109 18.6672 13.4938 18.769 13.1688 18.837C12.0955 19.044 10.4753 19.3305 9.4811 19.4823C5.65577 20.0691 3.83599 20.7076 3.83599 22.7369C3.83599 24.6213 6.18552 25.7844 8.36654 25.7844Z" fill="#1F2430"/>
<path fill-rule="evenodd" clip-rule="evenodd" d="M22.1706 8.63309C21.3242 8.63309 20.9046 9.0576 20.9046 9.90318V34.5593C20.9046 35.4083 21.3242 35.8327 22.1706 35.8327H23.371C24.1761 35.8327 24.5991 35.4083 24.5991 34.5593V26.8215C24.6028 26.2545 24.5649 25.6881 24.4856 25.1269H24.5614C25.1514 26.2033 26.0267 27.0954 27.0902 27.7043C28.1537 28.3133 29.3643 28.6158 30.5883 28.5782C35.6555 28.5782 39.3811 24.585 39.3811 18.3726C39.3811 12.3225 36.0786 8.16373 30.8567 8.16373C25.9718 8.16373 24.3205 11.9015 24.3205 11.9015H24.2448C24.2949 11.5586 24.3202 11.2126 24.3205 10.8661V9.71333C24.3205 9.0576 23.8973 8.63309 23.0546 8.63309H22.1706ZM35.6074 18.4175C35.6074 22.8455 33.0755 25.3512 30.0035 25.3512C26.4328 25.3512 24.5235 21.9241 24.5235 18.4555C24.5235 13.4856 27.1999 11.4355 30.1033 11.4459C33.3438 11.4459 35.6074 14.1793 35.6074 18.4175Z" fill="#1F2430"/>
<path fill-rule="evenodd" clip-rule="evenodd" d="M44.02 8.63309C43.1738 8.63309 42.7541 9.0576 42.7541 9.90318L42.7643 34.5593C42.7643 35.4083 43.184 35.8327 44.0303 35.8327H45.2206C46.0256 35.8327 46.4485 35.4083 46.4485 34.5593V26.8215C46.4522 26.2545 46.4142 25.6881 46.3351 25.1269H46.4105C47.0007 26.2033 47.8759 27.0954 48.9398 27.7043C50.0031 28.3133 51.2139 28.6158 52.4377 28.5782C57.5083 28.5782 61.2306 24.585 61.2306 18.3726C61.2306 12.3225 57.928 8.16373 52.7059 8.16373C47.8213 8.16373 46.17 11.9015 46.17 11.9015H46.0944C46.1447 11.5586 46.17 11.2126 46.17 10.8661V9.71333C46.17 9.0576 45.747 8.63309 44.904 8.63309H44.02ZM57.4567 18.4175C57.4567 22.8455 54.9248 25.3512 51.8529 25.3512H51.8565C48.2857 25.3512 46.3662 21.9241 46.3491 18.4555C46.3491 13.4856 49.0356 11.4459 51.9528 11.4459C55.1931 11.4459 57.4567 14.1793 57.4567 18.4175Z" fill="#1F2430"/>
<path d="M65.306 11.8695H64.0849C63.914 11.888 63.7407 11.8678 63.5784 11.8104C63.4159 11.7529 63.2681 11.6597 63.1464 11.5375C63.0247 11.4153 62.932 11.2674 62.8746 11.1044C62.8171 10.9415 62.7972 10.7677 62.8158 10.596V10.0955C62.7976 9.92403 62.8181 9.75066 62.8759 9.58816C62.9333 9.42566 63.0261 9.2781 63.1482 9.15636C63.2698 9.03456 63.4169 8.94163 63.5793 8.88441C63.7411 8.82714 63.914 8.807 64.0849 8.82543H65.3133V7.90047C65.306 1.73647 70.3355 0.735596 72.3409 0.735596H72.8023C73.638 0.735596 74.061 1.19807 74.061 2.00567V2.73734C74.061 3.58636 73.6037 3.93149 72.7195 4.01088C71.2989 4.08681 69.0319 4.43194 69.0319 8.0558V8.82543H72.3721C72.543 8.807 72.7159 8.82714 72.8778 8.88441C73.0401 8.94163 73.1876 9.03456 73.3093 9.15636C73.431 9.2781 73.5237 9.42566 73.5816 9.58816C73.6389 9.75066 73.6594 9.92403 73.6413 10.0955V10.596C73.6598 10.7677 73.6399 10.9415 73.5825 11.1044C73.5254 11.2674 73.4323 11.4153 73.3106 11.5375C73.1889 11.6597 73.0415 11.7529 72.8786 11.8104C72.7163 11.8678 72.543 11.888 72.3721 11.8695H69.0319V26.8516C69.0319 27.7006 68.6122 28.1251 67.7661 28.1251H66.5756C65.7706 28.1251 65.3097 27.7006 65.3097 26.8516L65.306 11.8695Z" fill="#1F2430"/>
<path fill-rule="evenodd" clip-rule="evenodd" d="M95.1458 18.3404C95.1458 12.4456 90.4642 8.16948 84.6641 8.16948C78.878 8.16948 74.2235 12.4042 74.2235 18.3371C74.2235 24.2698 78.8644 28.5838 84.6641 28.5838C90.4642 28.5838 95.1458 24.2353 95.1458 18.3404ZM91.3447 18.3404C91.3447 22.4233 88.352 25.35 84.6641 25.35C81.0177 25.35 77.9838 22.3785 77.9838 18.3371C77.9838 14.2955 80.9766 11.4068 84.6641 11.4068C88.352 11.4068 91.3447 14.2576 91.3447 18.3404Z" fill="#1F2430"/>
<path d="M98.3802 2.19853C98.3802 1.35412 98.8035 0.930756 99.6498 0.928456H100.84C101.645 0.928456 102.106 1.35297 102.106 2.19853V22.3438C102.106 24.5422 103.066 24.8494 103.871 24.9253C104.011 24.9291 104.149 24.9614 104.276 25.0204C104.403 25.0795 104.517 25.1638 104.611 25.2685C104.705 25.3731 104.776 25.4958 104.821 25.6292C104.866 25.7624 104.883 25.9033 104.872 26.0436V26.965C104.872 27.7727 104.528 28.2731 103.564 28.2731C101.501 28.2731 98.3802 27.6968 98.3802 22.8029V2.19853Z" fill="#1F2430"/>
<path d="M108.217 9.90199C108.217 9.05641 108.678 8.6319 109.483 8.6319H110.673C111.519 8.6319 111.939 9.05641 111.939 9.90199V26.8513C111.939 27.7004 111.519 28.1249 110.673 28.1249H109.493C108.688 28.1249 108.227 27.7004 108.227 26.8513L108.217 9.90199Z" fill="#1F2430"/>
<path fill-rule="evenodd" clip-rule="evenodd" d="M136.1 18.3404C136.1 12.4456 131.418 8.16948 125.618 8.16948C119.815 8.16948 115.174 12.4042 115.174 18.3371C115.174 24.2698 119.818 28.5838 125.618 28.5838C131.418 28.5838 136.1 24.2353 136.1 18.3404ZM132.299 18.3404C132.299 22.4233 129.306 25.35 125.618 25.35C121.972 25.35 118.938 22.3785 118.938 18.3371C118.938 14.2955 121.93 11.4068 125.618 11.4068C129.306 11.4068 132.299 14.2576 132.299 18.3404Z" fill="#1F2430"/>
</g>
</svg>
