<svg width="132" height="29" viewBox="0 0 132 29" fill="none" xmlns="http://www.w3.org/2000/svg">
<g id="looka_logo_black 1" clip-path="url(#clip0_4214_1331)">
<path id="Vector" d="M11.4199 5.31162L19.3367 9.9059C20.6162 10.6482 21.4039 12.0123 21.4061 13.488L21.4286 29L30.9134 23.6884V8.28118C30.9134 6.80014 30.1221 5.43142 28.8369 4.68876L20.7199 0L11.4199 5.31162Z" fill="#090B17"/>
<path id="Vector_2" d="M19.4935 23.6884L11.5764 19.0941C10.2969 18.3518 9.50913 16.9877 9.50698 15.512L9.48481 0L0 5.31162V20.7188C0 22.1999 0.791355 23.5686 2.07655 24.3112L10.1936 29.0004L19.4935 23.6884ZM77.6272 17.1827C77.6272 22.4195 73.8274 26.2347 68.796 26.2347C63.7647 26.2347 59.9649 22.4198 59.9649 17.1827C59.9649 11.9114 63.7647 8.13072 68.796 8.13072C73.8274 8.13108 77.6272 11.9114 77.6272 17.1827ZM73.0746 17.1827C73.0746 13.9575 71.0206 12.3271 68.796 12.3271C66.5714 12.3271 64.5174 13.9575 64.5174 17.1827C64.5174 20.3733 66.5714 22.0383 68.796 22.0383C71.0206 22.0383 73.0746 20.4079 73.0746 17.1827ZM97.2505 17.1827C97.2505 22.4195 93.4507 26.2347 88.4193 26.2347C83.388 26.2347 79.5882 22.4198 79.5882 17.1827C79.5882 11.9114 83.388 8.13072 88.4193 8.13072C93.4507 8.13072 97.2505 11.9114 97.2505 17.1827ZM92.6979 17.1827C92.6979 13.9575 90.6439 12.3271 88.4193 12.3271C86.1947 12.3271 84.1407 13.9575 84.1407 17.1827C84.1407 20.3733 86.1947 22.0383 88.4193 22.0383C90.6439 22.0383 92.6979 20.4079 92.6979 17.1827ZM42.8268 25.7484V2.76491H47.6365V21.1613H58.6497V25.7484H42.8268ZM109.447 15.8454L116.452 25.7484H110.771L106.24 19.216L104.323 21.2312V25.7488H99.6878V2.76491H104.323V15.0107L110.248 8.65197H116.312L109.447 15.8454ZM121.753 15.9145L125.971 15.2892C126.947 15.1505 127.26 14.6638 127.26 14.0734C127.26 12.8569 126.319 11.8494 124.368 11.8494C122.346 11.8494 121.231 12.4783 121.091 13.9725L116.902 14.0267C117.181 11.3509 119.732 8.13072 124.332 8.13072C129.769 8.13072 131.791 11.1883 131.791 14.6285V23.0381C131.791 23.9415 131.895 25.1573 132 25.7481H127.748C127.643 25.2963 127.574 24.3579 127.574 23.698C126.703 25.0532 125.065 26.2344 122.52 26.2344C118.861 26.2344 116.63 23.7675 116.63 21.0921C116.63 18.0341 118.896 16.3317 121.753 15.9145ZM127.26 18.8335V18.0691L123.392 18.6595C122.207 18.8331 121.265 19.4938 121.265 20.8144C121.265 21.8219 121.997 22.7949 123.496 22.7949C125.448 22.7949 127.26 21.8565 127.26 18.8335Z" fill="#090B17"/>
</g>
<defs>
<clipPath id="clip0_4214_1331">
<rect width="132" height="29" fill="white"/>
</clipPath>
</defs>
</svg>
