<svg width="121" height="31" viewBox="0 0 121 31" fill="none" xmlns="http://www.w3.org/2000/svg">
<g id="Solocal" clip-path="url(#clip0_3803_7240)">
<path id="Vector" fill-rule="evenodd" clip-rule="evenodd" d="M49.3442 19.3493C49.3442 13.5098 54.0152 8.90747 59.8915 8.90747C65.9185 8.90747 70.4388 13.3613 70.3886 19.3493C70.3886 25.1886 65.7679 29.7416 59.8915 29.7416C53.9648 29.7416 49.3442 25.1886 49.3442 19.3493ZM53.4626 19.3493C53.4626 22.9617 56.3256 25.8815 59.8915 25.8815C63.4573 25.8815 66.3203 22.9122 66.3203 19.3493C66.3203 15.7367 63.4574 12.7674 59.8915 12.7674C56.3256 12.7674 53.4626 15.7367 53.4626 19.3493Z" fill="#0D101C"/>
<path id="Vector_2" d="M83.2381 25.9311C79.4038 25.9311 76.5652 23.1104 76.5652 19.3988C76.5652 15.6376 79.4536 12.8169 83.2381 12.8169C84.9312 12.8169 86.5745 13.5593 87.7199 14.8954L90.5086 12.1735C89.5126 10.9365 86.9232 8.90747 83.1883 8.90747C77.0134 8.90747 72.3823 13.4109 72.3823 19.3493C72.3823 25.1886 77.1131 29.7416 83.1883 29.7416C85.1802 29.7416 87.4211 29.0487 89.0147 27.8609C89.5625 27.4156 90.0602 26.9703 90.5086 26.4753L87.6701 23.803L87.6203 23.8526C86.5248 25.1886 84.9312 25.9311 83.2381 25.9311Z" fill="#0D101C"/>
<path id="Vector_3" fill-rule="evenodd" clip-rule="evenodd" d="M108.666 10.9615V8.90747H112.885L112.936 29.7473H108.766V27.493L107.31 28.445C105.803 29.4969 104.044 30.0479 102.337 30.0479H102.136C96.4089 29.9477 91.7373 25.2388 91.7373 19.5779C91.7373 13.7669 96.4593 9.05776 102.337 9.05776C104.095 9.05776 105.803 9.4585 107.31 10.26L108.666 10.9615ZM103.09 26.1405L103.241 26.0903C106.456 25.6394 108.766 23.0345 108.716 19.7782V18.9767C108.415 15.5703 105.602 12.9152 102.286 12.9152C98.77 12.9152 95.8565 15.8708 95.8565 19.5278C95.8565 23.1347 98.7197 26.0903 102.236 26.1405H103.09Z" fill="#0D101C"/>
<path id="Vector_4" d="M42.4292 1.24878H46.7304V29.7424H42.4292V1.24878Z" fill="#0D101C"/>
<path id="Vector_5" d="M116.469 1.24878H120.769V29.7424H116.469V1.24878Z" fill="#0D101C"/>
<path id="Vector_6" fill-rule="evenodd" clip-rule="evenodd" d="M18.4673 19.3493C18.4673 13.5098 23.1272 8.90747 28.9897 8.90747C34.9525 8.90747 39.4621 13.3613 39.5122 19.3493C39.5122 25.1886 34.9022 29.7416 28.9897 29.7416C23.0772 29.7416 18.4673 25.1886 18.4673 19.3493ZM22.5761 19.3493C22.5761 22.9617 25.4321 25.8815 28.9897 25.8815C32.4971 25.8815 35.4034 22.9122 35.4034 19.3493C35.4034 15.7367 32.5474 12.7674 28.9897 12.7674C25.4321 12.7674 22.5761 15.7367 22.5761 19.3493Z" fill="#0D101C"/>
<path id="Vector_7" d="M7.79769 29.7416C6.20226 29.7416 4.65663 29.5436 3.1609 29.0981C1.66533 28.6528 0.468691 28.1579 -0.428711 27.5146L1.2664 24.001C2.16381 24.5949 3.21082 25.0898 4.40731 25.4361C5.65372 25.7826 6.90028 25.9805 8.09676 25.9805C10.8887 25.9805 12.2847 25.1886 12.2847 23.6546C12.2847 22.9122 11.9357 22.3679 11.1879 22.071C10.4899 21.774 9.34318 21.5266 7.79769 21.2792C6.20226 21.0318 4.85601 20.735 3.85907 20.3884C2.86182 20.0422 1.96441 19.4978 1.2664 18.6564C0.518616 17.8646 0.169609 16.6769 0.169609 15.2418C0.169609 13.3613 0.967321 11.7777 2.46304 10.6395C4.00853 9.50124 6.10258 8.90747 8.74486 8.90747C10.091 8.90747 11.4372 9.05607 12.7833 9.40228C14.0795 9.69931 15.1764 10.1446 16.0239 10.6395L14.3288 14.1531C12.6836 13.1634 10.789 12.6686 8.74501 12.6686C7.39876 12.6686 6.35173 12.8664 5.65372 13.3119C4.95586 13.7572 4.55693 14.351 4.55693 15.0438C4.55693 15.8357 4.95586 16.4295 5.70364 16.7264C6.45143 17.0234 7.64807 17.3698 9.1937 17.6171C10.7391 17.8646 12.0356 18.1616 13.0325 18.508C14.0297 18.8543 14.8774 19.3988 15.5752 20.1905C16.2733 20.9823 16.6222 22.071 16.6222 23.5061C16.6222 25.3866 15.8246 26.9208 14.2791 28.059C12.6836 29.1972 10.4899 29.7416 7.79769 29.7416Z" fill="#0D101C"/>
</g>
<defs>
<clipPath id="clip0_3803_7240">
<rect width="121.2" height="30" fill="white" transform="translate(-0.428711 0.878174)"/>
</clipPath>
</defs>
</svg>
