<svg width="94" height="39" viewBox="0 0 94 39" fill="none" xmlns="http://www.w3.org/2000/svg">
<g id="Thryv" clip-path="url(#clip0_3803_7275)">
<g id="Vector">
<path fill-rule="evenodd" clip-rule="evenodd" d="M32.2934 31.2557V16.3068C32.1786 13.6476 30.3464 11.6726 27.7482 11.1536C26.5486 10.9146 25.3021 10.8432 24.0733 10.8069C22.1732 10.7518 20.2731 10.7916 18.2734 10.7916V4.26782H13.816V31.2452H18.3261V14.3563C20.5238 14.3563 22.6442 14.2907 24.7574 14.3798C26.0648 14.436 27.0676 15.1881 27.4483 16.4615C27.7282 17.3986 27.8864 18.4048 27.9004 19.383C27.9508 23.0355 27.9203 30.9241 27.9203 31.2557H32.2934Z" fill="black"/>
<path fill-rule="evenodd" clip-rule="evenodd" d="M39.2461 31.264C39.2461 29.9674 39.2297 23.7644 39.2461 20.1364C39.2508 19.416 39.3269 18.6874 39.4254 17.9727C39.7405 15.6803 40.926 14.5475 43.2267 14.3378C44.151 14.2523 45.0824 14.2418 46.0288 14.1972V10.7953C43.8194 10.8352 41.643 10.6044 39.5133 11.196C37.079 11.8719 35.4939 13.3878 35.0278 15.9217C34.8661 16.7873 34.7794 17.6764 34.7735 18.5574V31.264H39.2461Z" fill="black"/>
<path fill-rule="evenodd" clip-rule="evenodd" d="M8.47127 27.7341C6.17171 27.5221 4.98737 26.3906 4.66991 24.0979C4.57151 23.3822 4.49535 22.6548 4.49068 21.9332C4.48599 20.504 4.48833 17.4899 4.49068 14.3551H11.1621V10.8817H4.49653C4.50005 7.36854 4.50474 4.42351 4.49068 4.35675H0.0180634C0.00283455 4.59572 -0.0100514 19.5141 0.0180634 23.5145C0.0250921 24.3955 0.11178 25.2846 0.272268 26.1504C0.738507 28.6843 2.32582 30.2001 4.76011 30.8748C6.88981 31.4676 9.06403 31.2367 11.2757 31.2754V27.8724C10.3269 27.829 9.39555 27.8185 8.47127 27.7341Z" fill="black"/>
<path fill-rule="evenodd" clip-rule="evenodd" d="M71.2759 10.8069H75.5084C75.7403 10.8069 76.0684 11.1595 76.1656 11.4137C77.9556 16.0656 81.9842 26.666 82.1856 27.1452C82.6918 26.1329 86.458 16.2975 88.2633 11.4512C88.4554 10.9334 88.6979 10.787 89.2449 10.787H93.1295C93.0521 11.0482 87.9177 23.5663 85.4271 29.6414C84.9188 30.8809 84.0906 31.5508 82.7316 31.5064C82.4352 31.4982 82.1389 31.4946 81.8436 31.5064C80.418 31.5662 79.5522 30.868 79.0227 29.5712C77.0676 24.7824 71.9215 12.3755 71.2759 10.8069Z" fill="black"/>
<path fill-rule="evenodd" clip-rule="evenodd" d="M53.2168 37.9497C54.5851 37.9497 55.8409 37.9252 57.0955 37.9626C57.6214 37.9778 57.8793 37.8292 58.1076 37.3196C61.929 28.796 65.7772 20.2843 69.6183 11.7679C69.7425 11.4938 69.8432 11.2091 69.9839 10.8577C68.5723 10.8577 67.286 10.8764 65.9985 10.846C65.5523 10.8354 65.3426 10.9912 65.1668 11.3977C64.1593 13.7324 63.125 16.0541 62.0964 18.3808C60.9051 21.0715 59.7126 23.76 58.472 26.5609C58.1452 25.7936 57.8605 25.1341 57.584 24.4735C55.7776 20.1507 53.9783 15.8269 52.1591 11.5125C52.0513 11.2595 51.7888 10.8952 51.5862 10.8881C50.1723 10.8343 48.756 10.8589 47.267 10.8589C47.3478 11.0861 47.3877 11.2372 47.4497 11.3766C50.1898 17.5116 52.9087 23.6558 55.6945 29.7684C56.1608 30.7923 56.2884 31.6133 55.7156 32.6584C54.7948 34.3393 54.0673 36.1236 53.2168 37.9497Z" fill="black"/>
<path fill-rule="evenodd" clip-rule="evenodd" d="M88.8845 30.5432H88.97C89.031 30.5432 89.0767 30.5291 89.1082 30.4999C89.1399 30.4705 89.1551 30.4295 89.1551 30.3756C89.1551 30.3171 89.1399 30.275 89.1105 30.2515C89.0801 30.2281 89.0321 30.2164 88.9676 30.2164H88.8845V30.5432Z" fill="black"/>
<path fill-rule="evenodd" clip-rule="evenodd" d="M89.393 30.3715C89.393 30.5133 89.3298 30.6082 89.2032 30.6596L89.4961 31.1504H89.236L88.9982 30.723H88.887V31.1504H88.6538V30.0341H88.9772C89.1212 30.0341 89.2256 30.0622 89.2922 30.1184C89.359 30.1747 89.393 30.259 89.393 30.3715Z" fill="black"/>
<path fill-rule="evenodd" clip-rule="evenodd" d="M88.2343 30.5904C88.2343 30.731 88.2694 30.861 88.3385 30.9806C88.4089 31.1001 88.5037 31.195 88.6233 31.2641C88.7439 31.3332 88.8739 31.3683 89.0122 31.3683C89.1515 31.3683 89.2828 31.3332 89.4022 31.2617C89.5229 31.1914 89.6178 31.0965 89.6857 30.9781C89.7548 30.8587 89.7899 30.7299 89.7899 30.5904C89.7899 30.4522 89.7548 30.3222 89.6846 30.2015C89.6155 30.0808 89.5206 29.9861 89.3986 29.9169C89.2792 29.8478 89.1492 29.8126 89.0122 29.8126C88.8739 29.8126 88.745 29.8478 88.6256 29.9157C88.5072 29.9836 88.4112 30.0785 88.3409 30.1992C88.2694 30.3186 88.2343 30.4499 88.2343 30.5904Z" fill="black"/>
<path fill-rule="evenodd" clip-rule="evenodd" d="M88.0821 30.591C88.0821 30.4259 88.1231 30.2725 88.2051 30.1272C88.2871 29.9831 88.4008 29.8694 88.5448 29.7863C88.6889 29.703 88.8447 29.662 89.0111 29.662C89.1751 29.662 89.3309 29.703 89.475 29.785C89.619 29.8683 89.7327 29.9808 89.8158 30.1247C89.8991 30.2689 89.9401 30.4247 89.9401 30.591C89.9401 30.7538 89.9002 30.9062 89.8205 31.0478C89.7409 31.1909 89.6285 31.3044 89.4843 31.3911C89.3402 31.4767 89.1821 31.52 89.0111 31.52C88.84 31.52 88.683 31.4767 88.539 31.3911C88.3949 31.3068 88.2824 31.192 88.2017 31.0491C88.122 30.9073 88.0821 30.7538 88.0821 30.591Z" fill="black"/>
</g>
<path id="Vector_2" fill-rule="evenodd" clip-rule="evenodd" d="M93.1321 8.57317L84.0919 4.47661L76.0242 0.81467C75.5696 0.609667 75.0554 0.942359 75.0554 1.44022V3.77609C75.0554 4.13455 74.78 4.4321 74.424 4.46021L50.9844 6.33804L23.0698 8.57317H93.1321Z" fill="#EC5E2A"/>
</g>
<defs>
<clipPath id="clip0_3803_7275">
<rect width="93.1962" height="38.8316" fill="white" transform="translate(0.00146484 0.27417)"/>
</clipPath>
</defs>
</svg>
