<svg width="216" height="58" viewBox="0 0 216 58" fill="none" xmlns="http://www.w3.org/2000/svg">
<path d="M196.339 41.5817V22.7162C196.338 22.362 196.245 22.014 196.068 21.7072C195.891 21.4003 195.637 21.1453 195.33 20.9675L180.869 12.6232C180.554 12.4405 180.196 12.3454 179.831 12.3474C179.301 12.357 178.795 12.5744 178.423 12.9531C178.051 13.3317 177.843 13.8412 177.843 14.3719V30.9009V32.2287V46.9583C177.844 47.3126 177.937 47.6605 178.114 47.9673C178.291 48.2742 178.545 48.5292 178.852 48.707L193.313 57.0513C193.619 57.2308 193.968 57.3259 194.323 57.327C194.678 57.328 195.027 57.2349 195.335 57.0573C195.642 56.8796 195.897 56.6236 196.073 56.3154C196.25 56.0072 196.341 55.6578 196.339 55.3027V46.3198V41.5817ZM191.847 36.8871C191.603 36.8885 191.363 36.8172 191.159 36.6822C190.955 36.5472 190.796 36.3546 190.702 36.129C190.608 35.9033 190.582 35.6546 190.63 35.4147C190.677 35.1747 190.795 34.9543 190.968 34.7813C191.141 34.6084 191.361 34.4908 191.601 34.4434C191.841 34.396 192.09 34.4211 192.315 34.5153C192.541 34.6096 192.734 34.7688 192.869 34.9728C193.004 35.1767 193.075 35.4162 193.073 35.6608C193.072 35.9854 192.942 36.2962 192.712 36.5258C192.483 36.7553 192.172 36.8852 191.847 36.8871Z" fill="#002F6C"/>
<path d="M214.726 9.88028L197.993 0.222614C197.741 0.0767769 197.454 0 197.163 0C196.871 0 196.584 0.0767769 196.332 0.222614L182.785 8.10983C182.524 8.25233 182.307 8.46225 182.156 8.71757C182.005 8.97289 181.925 9.26422 181.925 9.56102C181.925 9.85781 182.005 10.1491 182.156 10.4045C182.307 10.6598 182.524 10.8697 182.785 11.0122L195.526 18.4496C196.934 19.2622 197.239 19.4364 198.146 19.0808L209.458 14.5096L199.655 21.2939C198.929 21.8744 198.683 22.1791 198.683 24.2616V38.534C198.681 38.8262 198.756 39.1137 198.901 39.3675C199.046 39.6212 199.255 39.8324 199.507 39.9796C199.76 40.1267 200.046 40.2047 200.339 40.2057C200.631 40.2067 200.918 40.1307 201.171 39.9852L214.726 32.0907C214.981 31.9443 215.192 31.7329 215.339 31.4779C215.485 31.2229 215.562 30.9336 215.56 30.6395V11.317C215.559 11.0253 215.482 10.739 215.335 10.4868C215.189 10.2347 214.978 10.0255 214.726 9.88028Z" fill="#00A6B4"/>
<path d="M164.282 15.0319V11.861H163.099V11.4402H165.943V11.861H164.753V15.0319H164.282Z" fill="#3F454F"/>
<path d="M166.814 15.0319V11.4402H167.54L168.389 13.9798C168.468 14.2192 168.526 14.3934 168.563 14.5167C168.563 14.3861 168.664 14.1902 168.751 13.9362L169.615 11.4402H170.253V15.0319H169.789V12.0279L168.744 15.0319H168.338L167.3 11.9699V15.0319H166.814Z" fill="#3F454F"/>
<path d="M4.25199 19.1897C6.63194 19.1897 8.40964 19.6686 9.57059 20.6409C10.1605 21.145 10.6259 21.7786 10.9305 22.4923C11.2351 23.2059 11.3706 23.9803 11.3265 24.755C11.3502 25.6484 11.1742 26.5359 10.8114 27.3526C10.4868 28.0471 9.98658 28.6449 9.36017 29.0868C8.65602 29.5514 7.86689 29.8719 7.03827 30.0301C6.01924 30.2406 4.98044 30.3403 3.93998 30.3276H1.65436V37.257H0V19.6831C0.671231 19.4936 1.3587 19.3673 2.05343 19.3058C2.78385 19.2299 3.51764 19.1912 4.25199 19.1897ZM4.32454 20.7134C3.71021 20.7134 3.18778 20.7352 2.75726 20.7787L1.65436 20.8948V28.8038H3.74407C4.55251 28.8083 5.36015 28.7525 6.1603 28.6369C6.80195 28.5484 7.42039 28.3365 7.98154 28.0129C8.48844 27.7204 8.89935 27.2868 9.16426 26.7649C9.46197 26.1251 9.60371 25.4239 9.57785 24.7187C9.60174 24.0353 9.44666 23.3574 9.12798 22.7524C8.85274 22.2554 8.45891 21.8341 7.98154 21.5261C7.45933 21.2183 6.88708 21.0046 6.29091 20.8948C5.65247 20.7722 5.00368 20.7114 4.35357 20.7134H4.32454Z" fill="#3F454F"/>
<path d="M17.5959 23.6377C18.0823 23.6375 18.5678 23.6788 19.0471 23.7611C19.3757 23.8093 19.6973 23.897 20.0049 24.0223L19.6929 25.4735C19.44 25.365 19.1742 25.2894 18.902 25.2486C18.384 25.1642 17.8596 25.1253 17.3347 25.1325C16.7836 25.1177 16.2328 25.1713 15.6949 25.2921C15.4167 25.3513 15.1446 25.4363 14.8822 25.5461V37.2572H13.3149V24.5157C13.8573 24.278 14.4178 24.0839 14.9911 23.9352C15.8418 23.7179 16.7182 23.6178 17.5959 23.6377Z" fill="#3F454F"/>
<path d="M31.8315 30.5888C31.8467 31.5731 31.7021 32.5532 31.4034 33.4912C31.1527 34.2875 30.7485 35.0271 30.2135 35.668C29.7188 36.261 29.1027 36.741 28.4067 37.0756C27.6822 37.4101 26.8937 37.5832 26.0957 37.5832C25.2977 37.5832 24.5092 37.4101 23.7847 37.0756C23.0887 36.741 22.4726 36.261 21.978 35.668C21.4459 35.0251 21.0419 34.2862 20.788 33.4912C20.2172 31.6206 20.2172 29.6223 20.788 27.7517C21.0456 26.9584 21.4492 26.2201 21.978 25.575C22.4706 24.9483 23.1001 24.4427 23.8182 24.0969C24.5363 23.751 25.3241 23.5741 26.1211 23.5796C26.9188 23.5722 27.7077 23.7459 28.4285 24.0875C29.1296 24.4333 29.7463 24.9287 30.2352 25.5387C30.7666 26.1821 31.1705 26.9208 31.4252 27.7155C31.712 28.6457 31.8492 29.6155 31.8315 30.5888ZM30.1554 30.5888C30.2325 29.175 29.848 27.7743 29.0598 26.598C28.7152 26.1371 28.2679 25.7628 27.7534 25.505C27.2388 25.2472 26.6712 25.113 26.0957 25.113C25.5202 25.113 24.9526 25.2472 24.4381 25.505C23.9235 25.7628 23.4762 26.1371 23.1317 26.598C22.3482 27.7765 21.9642 29.1755 22.036 30.5888C21.9642 31.9998 22.3483 33.3965 23.1317 34.5723C23.4789 35.0294 23.9271 35.4 24.4413 35.6551C24.9555 35.9102 25.5217 36.043 26.0957 36.043C26.6697 36.043 27.236 35.9102 27.7501 35.6551C28.2643 35.4 28.7126 35.0294 29.0598 34.5723C29.8465 33.3981 30.2309 32.0002 30.1554 30.5888Z" fill="#3F454F"/>
<path d="M35.866 42.0385H34.2842V24.3558C34.8728 24.1548 35.4739 23.9924 36.0837 23.8696C36.997 23.6959 37.9259 23.618 38.8554 23.6374C39.7153 23.6265 40.5687 23.7868 41.366 24.1091C42.1086 24.4218 42.7727 24.8951 43.3106 25.4949C43.8739 26.128 44.3034 26.8684 44.5731 27.6717C44.8863 28.6067 45.0385 29.5881 45.023 30.5741C45.0338 31.5234 44.9067 32.4693 44.6457 33.3822C44.4242 34.173 44.0494 34.9126 43.5428 35.5589C43.0633 36.1696 42.4535 36.6654 41.7578 37.0101C41.0021 37.3636 40.1757 37.5398 39.3416 37.5253C38.5981 37.5459 37.858 37.4176 37.1648 37.148C36.693 36.9686 36.2486 36.7244 35.8442 36.4224L35.866 42.0385ZM35.866 34.8551C36.0402 34.9931 36.2219 35.1215 36.4102 35.2397C36.655 35.3919 36.9123 35.523 37.1793 35.6315C37.4858 35.7544 37.8011 35.8538 38.1226 35.929C38.4755 36.0054 38.8354 36.0443 39.1965 36.0451C39.8726 36.0671 40.5435 35.9199 41.1483 35.617C41.6639 35.3423 42.1029 34.9432 42.4254 34.456C42.773 33.9282 43.0191 33.34 43.1509 32.7219C43.2992 32.0279 43.3722 31.32 43.3686 30.6104C43.4542 29.1508 42.9967 27.7112 42.0843 26.5688C41.6768 26.105 41.1709 25.738 40.6035 25.4945C40.0361 25.2509 39.4216 25.1371 38.8046 25.1612C38.1761 25.1502 37.5477 25.189 36.9253 25.2773C36.5587 25.3292 36.1971 25.4117 35.8442 25.524L35.866 34.8551Z" fill="#3F454F"/>
<path d="M46.7277 30.5599C46.7085 29.5197 46.868 28.484 47.1994 27.4979C47.478 26.7032 47.8984 25.9657 48.4401 25.3211C48.9163 24.7586 49.5143 24.312 50.1888 24.015C50.8355 23.7285 51.5349 23.5802 52.2423 23.5796C52.9283 23.5594 53.6102 23.6928 54.238 23.9703C54.8657 24.2478 55.4234 24.6622 55.8702 25.1832C56.7845 26.2571 57.2416 27.8969 57.2416 30.1245C57.2489 30.2623 57.2489 30.4003 57.2416 30.5381C57.2498 30.6662 57.2498 30.7946 57.2416 30.9227H48.4039C48.358 32.2715 48.7584 33.5977 49.5431 34.6958C50.2686 35.581 51.3933 36.0163 52.9461 36.0163C53.6354 36.0394 54.3238 35.9512 54.985 35.7551C55.3618 35.641 55.7283 35.4954 56.0807 35.3198L56.3709 36.771C55.9647 36.982 55.5364 37.1475 55.0939 37.2644C54.3857 37.4631 53.6525 37.5584 52.9171 37.5473C51.9386 37.5718 50.9662 37.3862 50.0655 37.0031C49.3174 36.6806 48.6579 36.1829 48.1427 35.552C47.6327 34.9098 47.262 34.1685 47.0543 33.3752C46.8208 32.4554 46.711 31.5086 46.7277 30.5599ZM55.6453 29.5005C55.6815 28.3455 55.3597 27.2075 54.7238 26.2426C54.4351 25.8625 54.0585 25.5583 53.6262 25.3561C53.1939 25.1538 52.719 25.0597 52.2423 25.0816C51.7143 25.0732 51.1928 25.198 50.7258 25.4444C50.2755 25.6874 49.8783 26.018 49.5576 26.4167C49.2136 26.8337 48.9504 27.311 48.7812 27.8244C48.5923 28.3648 48.48 28.929 48.4474 29.5005H55.6453Z" fill="#3F454F"/>
<path d="M64.578 23.6376C65.0644 23.6378 65.5498 23.6791 66.0292 23.761C66.3574 23.8112 66.6787 23.8989 66.987 24.0222L66.6677 25.4734C66.4174 25.3645 66.154 25.2889 65.8841 25.2484C65.3661 25.164 64.8416 25.1252 64.3168 25.1323C63.7657 25.1176 63.2149 25.1712 62.677 25.292C62.3965 25.3515 62.1221 25.4365 61.857 25.5459V37.257H60.3115V24.5156C60.8535 24.2768 61.4141 24.0827 61.9876 23.9351C62.8335 23.7183 63.705 23.6182 64.578 23.6376Z" fill="#3F454F"/>
<path d="M70.8759 23.8915H75.8825V25.3427H70.8759V32.4535C70.8628 33.0757 70.9261 33.6971 71.0646 34.3038C71.1473 34.706 71.3266 35.082 71.587 35.3995C71.8013 35.6509 72.0874 35.8306 72.4069 35.9146C72.7576 36.0048 73.1187 36.0487 73.4808 36.0452C74.0261 36.0654 74.5703 35.9817 75.0844 35.7985C75.411 35.6756 75.7265 35.5251 76.0276 35.3487L76.4194 36.7418C76.0466 36.9677 75.6468 37.1456 75.2295 37.2715C74.6346 37.4769 74.0085 37.5776 73.3792 37.569C72.7142 37.5871 72.0519 37.4788 71.4274 37.2497C70.9196 37.0504 70.4809 36.7075 70.1648 36.2629C69.8228 35.7729 69.5947 35.2126 69.4973 34.6231C69.3566 33.8549 69.291 33.0748 69.3014 32.2939V19.9661L70.8759 19.6541V23.8915Z" fill="#3F454F"/>
<path d="M82.718 37.5398C82.1956 36.4877 81.6804 35.363 81.187 34.2529C80.6936 33.1427 80.2219 31.9673 79.7938 30.8063C79.3657 29.6454 78.9667 28.4844 78.6111 27.3162C78.2556 26.148 77.9436 25.0161 77.6896 23.8914H79.3657C79.5471 24.7186 79.7721 25.6111 80.0478 26.5688C80.3235 27.5266 80.6355 28.5134 80.9838 29.5293C81.3321 30.5451 81.7094 31.59 82.1303 32.6566C82.5511 33.7232 83.0155 34.7753 83.5089 35.8129C83.8717 34.7463 84.1909 33.7377 84.4667 32.7944C84.7424 31.8512 85.0036 30.9006 85.2431 29.9646C85.4825 29.0286 85.7074 28.0636 85.9687 27.0622C86.2299 26.0609 86.4113 25.0161 86.6435 23.8696H88.2253C87.698 26.3753 87.1054 28.8085 86.4475 31.1691C85.8347 33.3652 85.1082 35.528 84.2708 37.6487C84.0026 38.3383 83.6849 39.0076 83.3202 39.6513C83.0301 40.166 82.6631 40.6333 82.2318 41.0372C81.8296 41.3994 81.3546 41.6715 80.8387 41.8354C80.235 42.0212 79.6055 42.1094 78.9739 42.0966C78.5978 42.1022 78.2231 42.0483 77.8638 41.9369C77.6478 41.8827 77.4386 41.8049 77.2397 41.7047L77.559 40.3116C77.7325 40.4081 77.9179 40.4813 78.1105 40.5293C78.4131 40.6256 78.7289 40.6745 79.0465 40.6744C79.4602 40.6793 79.8728 40.6281 80.2727 40.522C80.6356 40.4176 80.972 40.237 81.2595 39.9923C81.5765 39.7156 81.844 39.3868 82.0504 39.02C82.3186 38.5485 82.5421 38.053 82.718 37.5398Z" fill="#3F454F"/>
<path d="M125.862 34.2021C126.712 34.2553 127.564 34.1139 128.351 33.7885C128.61 33.6607 128.825 33.4585 128.969 33.2077C129.112 32.9569 129.177 32.669 129.156 32.3809C129.156 32.0763 129.08 31.7765 128.934 31.509C128.788 31.2416 128.578 31.0149 128.322 30.8499C127.46 30.3007 126.534 29.8597 125.565 29.5366C124.823 29.2717 124.096 28.9665 123.388 28.6223C122.773 28.3296 122.202 27.9536 121.69 27.5049C121.212 27.0722 120.831 26.5429 120.573 25.9521C120.277 25.2502 120.136 24.493 120.159 23.7318C120.128 22.9546 120.283 22.1813 120.613 21.4768C120.942 20.7723 121.436 20.1571 122.053 19.683C123.549 18.6377 125.353 18.1266 127.175 18.2318C128.228 18.2276 129.278 18.3297 130.31 18.5365C131.073 18.6682 131.823 18.8648 132.552 19.1243L131.768 22.6144C131.185 22.3593 130.577 22.1625 129.954 22.0266C129.114 21.8349 128.255 21.7448 127.393 21.7582C126.654 21.7272 125.919 21.8792 125.253 22.2008C124.997 22.3241 124.783 22.5197 124.637 22.7635C124.491 23.0072 124.42 23.2884 124.433 23.5722C124.43 23.8535 124.484 24.1325 124.592 24.3921C124.722 24.6542 124.914 24.8808 125.151 25.0524C125.472 25.2892 125.817 25.4911 126.181 25.6546C126.692 25.8919 127.215 26.1003 127.749 26.2786C128.637 26.599 129.505 26.9746 130.346 27.4033C130.994 27.7247 131.588 28.1431 132.109 28.6441C132.564 29.0904 132.911 29.6336 133.125 30.2331C133.351 30.9211 133.459 31.6424 133.445 32.3664C133.488 33.1525 133.33 33.9368 132.984 34.6443C132.639 35.3519 132.118 35.959 131.471 36.4079C130.15 37.2883 128.269 37.7285 125.826 37.7285C124.496 37.7616 123.167 37.625 121.871 37.3222C121.159 37.1381 120.457 36.9177 119.767 36.6619L120.493 33.0339C121.243 33.325 122.011 33.5674 122.793 33.7595C123.792 34.0417 124.824 34.1905 125.862 34.2021Z" fill="#3F454F"/>
<path d="M135.861 13.7839L140.171 13.0583V18.689H146.796V22.3169H140.171V29.8559C140.082 30.9714 140.336 32.0874 140.896 33.0557C141.193 33.4002 141.568 33.6678 141.99 33.8359C142.412 34.0039 142.868 34.0674 143.32 34.0208C144.022 34.0321 144.722 33.9492 145.402 33.7741C145.894 33.6438 146.378 33.4888 146.854 33.3097L147.579 36.7272C146.94 36.9872 146.286 37.2077 145.62 37.3875C144.689 37.6266 143.73 37.7389 142.768 37.7213C141.637 37.7557 140.51 37.576 139.445 37.1916C138.609 36.8803 137.875 36.3427 137.327 35.6389C136.781 34.9127 136.402 34.0754 136.216 33.1863C135.993 32.1028 135.886 30.9985 135.897 29.8921L135.861 13.7839Z" fill="#3F454F"/>
<path d="M156.801 18.2098C158.032 18.1739 159.26 18.3531 160.429 18.7395C161.316 19.0432 162.115 19.5588 162.758 20.2415C163.35 20.9067 163.771 21.7061 163.984 22.5707C164.246 23.5527 164.373 24.5657 164.362 25.5819V36.8721C163.694 37.01 162.693 37.1841 161.35 37.3873C159.846 37.6016 158.328 37.7034 156.808 37.692C155.778 37.7014 154.751 37.5918 153.746 37.3655C152.895 37.1894 152.089 36.8386 151.381 36.3352C150.721 35.8587 150.194 35.2219 149.85 34.4849C149.455 33.6002 149.267 32.6377 149.298 31.6696C149.268 30.7294 149.48 29.7973 149.915 28.9631C150.327 28.2347 150.91 27.6171 151.613 27.1637C152.369 26.6823 153.208 26.3453 154.087 26.1696C155.053 25.9631 156.038 25.8609 157.026 25.8649C157.525 25.8664 158.024 25.8955 158.521 25.9519C159.082 26.0205 159.64 26.1223 160.189 26.2567V25.5311C160.194 25.0419 160.136 24.5541 160.015 24.0799C159.901 23.6386 159.687 23.2292 159.391 22.8827C159.056 22.5353 158.639 22.2762 158.18 22.128C157.591 21.9192 156.968 21.8208 156.344 21.8378C155.425 21.8317 154.507 21.9045 153.601 22.0555C152.913 22.162 152.235 22.3295 151.577 22.5561L151.04 19.066C151.819 18.8136 152.618 18.622 153.427 18.4928C154.541 18.2975 155.67 18.2028 156.801 18.2098ZM157.156 34.2672C158.169 34.2939 159.183 34.2234 160.182 34.0568V29.2824C159.844 29.1905 159.499 29.1202 159.152 29.072C158.657 28.9961 158.157 28.9597 157.657 28.9631C157.171 28.9632 156.686 28.9996 156.206 29.072C155.751 29.1355 155.308 29.2676 154.893 29.4638C154.513 29.6413 154.187 29.9168 153.949 30.262C153.697 30.647 153.57 31.1007 153.587 31.5608C153.543 31.968 153.609 32.3795 153.779 32.7522C153.949 33.1249 154.216 33.4452 154.552 33.6795C155.35 34.1101 156.251 34.3134 157.156 34.2672Z" fill="#3F454F"/>
<path d="M116.952 37.3003H112.642V18.6743H116.952V37.3003Z" fill="#3F454F"/>
<path d="M117.017 12.6155H112.569V16.3813H117.017V12.6155Z" fill="#3F454F"/>
<path d="M105.661 16.3813C105.175 17.789 103.978 21.4605 103.485 22.8391C102.875 24.5225 102.273 26.1478 101.678 27.7006C101.083 29.2534 100.517 30.6828 99.9655 31.9889C99.3898 30.6828 98.807 29.2461 98.2168 27.6788C97.6266 26.1115 97.0317 24.491 96.4318 22.8173C95.9457 21.4605 93.0143 14.0159 92.5281 12.6155H87.6304C88.4213 14.7923 91.701 23.0423 92.5572 25.2263C94.2115 29.4251 95.9288 33.4497 97.7089 37.3002H102.019C103.804 33.4304 105.519 29.4057 107.163 25.2263C108.02 23.0495 109.558 18.5654 110.356 16.3813H105.661Z" fill="#3F454F"/>
</svg>
